HIERARCHY
ROOT pelvis
{
  OFFSET 0 100 0
  CHANNELS 6 Xposition Yposition Zposition Zrotation Xrotation Yrotation
  JOINT pelvis_right_femur
  {
    OFFSET -10.78128 -3.44521 -0.5502486
    CHANNELS 3 Zrotation Xrotation Yrotation
    JOINT right_femur_tibia
    {
      OFFSET -0.8047443 -44.0398 -0.1307829
      CHANNELS 3 Zrotation Xrotation Yrotation
      JOINT right_tibia_foot
      {
        OFFSET 3.006224 -47.83518 -5
        CHANNELS 3 Zrotation Xrotation Yrotation
        End Site
        {
          OFFSET 0 -5 15
        }
      }
    }
  }
  JOINT pelvis_left_femur
  {
    OFFSET 10.78128 -3.44521 -0.5502486
    CHANNELS 3 Zrotation Xrotation Yrotation
    JOINT left_femur_tibia
    {
      OFFSET 0.8047443 -44.0398 -0.1307829
      CHANNELS 3 Zrotation Xrotation Yrotation
      JOINT left_tibia_foot
      {
        OFFSET -4.370144 -48.10324 -4.275266
        CHANNELS 3 Zrotation Xrotation Yrotation
        End Site
        {
          OFFSET 0 -5 15
        }
      }
    }
  }
  JOINT pelvis_spine1
  {
    OFFSET 0 6.468898 -3.129235
    CHANNELS 3 Zrotation Xrotation Yrotation
    JOINT spine1
    {
      OFFSET 0 23.15396 4.99043
      CHANNELS 3 Zrotation Xrotation Yrotation
      JOINT spine2
      {
        OFFSET 0 20.79997 -5.064912
        CHANNELS 3 Zrotation Xrotation Yrotation
        JOINT neck
        {
          OFFSET 0 14.38658 9.616178
          CHANNELS 3 Zrotation Xrotation Yrotation
          End Site
          {
            OFFSET 0 20 0
          }
        }
      }
      JOINT right_manubrium
      {
        OFFSET -5.722621 16.35077 3.967754
        CHANNELS 3 Zrotation Xrotation Yrotation
        JOINT right_clavicle
        {
          OFFSET -13.16364 1.694482 -4.693211
          CHANNELS 3 Zrotation Xrotation Yrotation
          JOINT right_humerus
          {
            OFFSET -28.5034 -0.3100689 -2.792744
            CHANNELS 3 Zrotation Xrotation Yrotation
            JOINT right_radius
            {
              OFFSET -25.15693 0.02248979 -1.271978
              CHANNELS 3 Zrotation Xrotation Yrotation
              End Site
              {
                OFFSET -15 0 0
              }
            }
          }
        }
      }
      JOINT left_manubrium
      {
        OFFSET 5.722621 16.35077 3.967754
        CHANNELS 3 Zrotation Xrotation Yrotation
        JOINT left_clavicle
        {
          OFFSET 13.16364 1.694482 -4.693211
          CHANNELS 3 Zrotation Xrotation Yrotation
          JOINT left_humerus
          {
            OFFSET 29.39168 -1.063119 -2.237045
            CHANNELS 3 Zrotation Xrotation Yrotation
            JOINT left_radius
            {
              OFFSET 24.59957 -0.9528479 0.9047498
              CHANNELS 3 Zrotation Xrotation Yrotation
              End Site
              {
                OFFSET 15 -0 -0
              }
            }
          }
        }
      }
    }
  }
}
MOTION
Frames: 17
Frame Time: 0.0416666666667
-1599.184 101.9204 2253.304 -12.99024 3.195089 -104.6715 4.680743 6.386048 -10.66352 -0 16.87278 -0 -23.05275 12.39851 6.954423 -0.1935391 -6.777621 -1.317109 -0 20.13716 -0 9.470429 -5.288533 17.66826 0.6765682 -3.685261 4.700678 -1.593504 19.18556 -4.943305 0.9618165 22.72343 3.149425 3.112933 -18.29696 3.289754 -7.790927 -28.04959 11.89293 98.25695 10.31029 -12.95345 -0 0 14.74213 -29.38074 6.704031 12.31735 6.243929 -29.31084 -11.23068 -89.06338 -4.224908 22.80522 0 0 -9.394222 28.69974 12.37231 -24.52865
-1606.075 101.9235 2252.216 -12.97415 3.257007 -104.9415 4.681335 6.391331 -10.66226 -0 16.87016 -0 -23.05088 12.39362 6.95367 -0.192293 -6.784159 -1.317075 -0 20.13389 -0 9.469788 -5.28765 17.6693 0.6765054 -3.685032 4.701707 -1.593557 19.18481 -4.942726 0.9617933 22.72319 3.149392 3.112791 -18.29725 3.289801 -7.790316 -28.05065 11.89294 98.25443 10.31199 -12.95121 -0 0 14.74542 -29.38032 6.70429 12.31814 6.243774 -29.30921 -11.22964 -89.0646 -4.222863 22.80829 0 0 -9.392233 28.69717 12.37317 -24.52524
-1612.961 101.9261 2251.095 -12.95787 3.318805 -105.2116 4.681703 6.397105 -10.6609 -0 16.86924 -0 -23.04876 12.38898 6.952889 -0.1911875 -6.790879 -1.317231 -0 20.12958 -0 9.469176 -5.286912 17.67052 0.6763143 -3.684792 4.702731 -1.593704 19.18401 -4.942034 0.9617967 22.72299 3.149396 3.112653 -18.29745 3.289915 -7.789614 -28.0517 11.8929 98.25176 10.31377 -12.94867 -0 0 14.74892 -29.38006 6.704503 12.31906 6.243583 -29.30731 -11.22855 -89.06587 -4.220595 22.81151 0 0 -9.389776 28.69432 12.3741 -24.52146
-1619.84 101.9284 2249.942 -12.94144 3.380489 -105.4818 4.681835 6.403008 -10.65951 -0 16.87001 -0 -23.04654 12.38485 6.952127 -0.1902834 -6.797375 -1.317559 -0 20.12452 -0 9.46863 -5.286358 17.67186 0.6760111 -3.684555 4.703691 -1.593935 19.18318 -4.941275 0.9618257 22.72285 3.149437 3.112526 -18.29754 3.290086 -7.788868 -28.05267 11.89283 98.2491 10.31551 -12.946 -0 0 14.75242 -29.37996 6.70466 12.32007 6.24337 -29.30526 -11.22749 -89.06712 -4.218246 22.81468 0 0 -9.387012 28.69136 12.37503 -24.51755
-1626.714 101.9304 2248.755 -12.9249 3.442067 -105.752 4.681729 6.408683 -10.65818 -0 16.87236 -0 -23.04435 12.38147 6.951429 -0.1896276 -6.803267 -1.318033 -0 20.11904 -0 9.468178 -5.286013 17.67321 0.6756177 -3.684335 4.704532 -1.594231 19.18239 -4.940495 0.9618776 22.72277 3.149511 3.112417 -18.29752 3.290303 -7.788122 -28.05351 11.89273 98.24662 10.31711 -12.94336 -0 0 14.7557 -29.38002 6.704753 12.32109 6.243148 -29.30319 -11.2265 -89.06827 -4.21596 22.81761 0 0 -9.384118 28.68848 12.37591 -24.51376
-1633.583 101.9321 2247.535 -12.90828 3.503549 -106.0221 4.681403 6.4138 -10.65698 -0 16.8761 -0 -23.04231 12.37902 6.950835 -0.1892505 -6.808224 -1.318621 -0 20.11347 -0 9.467844 -5.285892 17.6745 0.6751609 -3.684146 4.705206 -1.594573 19.18168 -4.939743 0.9619486 22.72276 3.149612 3.112332 -18.29741 3.290551 -7.787421 -28.05418 11.8926 98.24444 10.31849 -12.94091 -0 0 14.75859 -29.38024 6.704779 12.32206 6.242929 -29.30123 -11.22565 -89.06926 -4.213872 22.82013 0 0 -9.381271 28.68584 12.37669 -24.51029
-1640.445 101.9337 2246.282 -12.89159 3.564949 -106.2921 4.680881 6.418073 -10.65599 -0 16.88096 -0 -23.04056 12.37759 6.950377 -0.1891647 -6.811984 -1.319283 -0 20.10817 -0 9.467645 -5.285992 17.67566 0.6746701 -3.683997 4.705681 -1.594939 19.18109 -4.939062 0.9620337 22.72281 3.149732 3.112276 -18.2972 3.290813 -7.786806 -28.05464 11.89246 98.2427 10.31956 -12.93879 -0 0 14.76092 -29.3806 6.704739 12.32293 6.242729 -29.29948 -11.22498 -89.07002 -4.212097 22.82212 0 0 -9.378639 28.6836 12.37733 -24.50736
-1647.3 101.9353 2244.997 -12.87482 3.626276 -106.562 4.680203 6.421277 -10.65526 -0 16.8866 -0 -23.03917 12.37726 6.950075 -0.1893651 -6.814364 -1.319976 -0 20.10343 -0 9.467586 -5.286301 17.67662 0.6741758 -3.683895 4.705935 -1.595306 19.18066 -4.938491 0.9621274 22.72292 3.149865 3.112251 -18.29691 3.291075 -7.78631 -28.05487 11.89231 98.24148 10.32028 -12.93711 -0 0 14.76257 -29.38107 6.704638 12.32365 6.242556 -29.29805 -11.22453 -89.07054 -4.210732 22.82346 0 0 -9.376372 28.68187 12.37779 -24.5051
-1654.15 101.9369 2243.678 -12.85797 3.687541 -106.8317 4.679415 6.42326 -10.65481 -0 16.89267 -0 -23.03821 12.37798 6.949944 -0.1898296 -6.815272 -1.320659 -0 20.09952 -0 9.467667 -5.286792 17.67733 0.6737076 -3.683845 4.70596 -1.595653 19.18039 -4.938059 0.9622239 22.72308 3.150002 3.112257 -18.29657 3.291319 -7.785959 -28.05486 11.89216 98.24084 10.32062 -12.93596 -0 0 14.76346 -29.38162 6.704483 12.32419 6.242422 -29.29701 -11.22432 -89.07077 -4.209844 22.8241 0 0 -9.374591 28.68074 12.37806 -24.50364
-1660.993 101.9387 2242.327 -12.841 3.748754 -107.1012 4.678567 6.423946 -10.65467 -0 16.89879 -0 -23.03775 12.37969 6.949985 -0.1905211 -6.814705 -1.321292 -0 20.09664 -0 9.467878 -5.287429 17.67775 0.6732926 -3.683848 4.705763 -1.595959 19.1803 -4.937787 0.9623172 22.72327 3.150134 3.112293 -18.29619 3.291533 -7.785768 -28.05463 11.89202 98.24079 10.32056 -12.93538 -0 0 14.76358 -29.38221 6.704286 12.32451 6.242331 -29.2964 -11.22434 -89.07073 -4.209467 22.82403 0 0 -9.373386 28.68026 12.37812 -24.50303
-1667.83 101.9407 2240.943 -12.82388 3.80992 -107.3706 4.677712 6.423341 -10.65484 -0 16.90458 -0 -23.03777 12.38225 6.950189 -0.1913903 -6.812751 -1.321837 -0 20.09492 -0 9.468202 -5.288171 17.67788 0.6729535 -3.683903 4.705363 -1.596208 19.1804 -4.937686 0.9624019 22.7235 3.150253 3.112355 -18.29581 3.291705 -7.785744 -28.05419 11.89191 98.24131 10.32013 -12.9354 -0 0 14.76294 -29.3828 6.70406 12.3246 6.24229 -29.29626 -11.2246 -89.07042 -4.209607 22.82328 0 0 -9.372807 28.68042 12.37797 -24.50328
-1674.66 101.943 2239.526 -12.80656 3.871043 -107.6397 4.676901 6.421525 -10.65529 -0 16.90972 -0 -23.03826 12.38548 6.950538 -0.1923788 -6.809574 -1.322266 -0 20.09443 -0 9.468615 -5.288967 17.67771 0.6727079 -3.684003 4.704793 -1.596387 19.18066 -4.937756 0.9624732 22.72373 3.150354 3.112439 -18.29543 3.291825 -7.785881 -28.05358 11.89181 98.24236 10.31936 -12.93599 -0 0 14.76161 -29.38337 6.70382 12.32448 6.242297 -29.29656 -11.22506 -89.06986 -4.210238 22.82192 0 0 -9.372869 28.68121 12.37764 -24.50435
-1681.483 101.9457 2238.076 -12.78901 3.932125 -107.9087 4.676182 6.418651 -10.65598 -0 16.91392 -0 -23.03918 12.38915 6.951007 -0.1934235 -6.805407 -1.322557 -0 20.09516 -0 9.46909 -5.28977 17.67727 0.6725673 -3.684142 4.704091 -1.596487 19.18107 -4.937986 0.9625274 22.72396 3.150431 3.11254 -18.2951 3.291888 -7.786166 -28.05285 11.89175 98.24385 10.31832 -12.93709 -0 0 14.75968 -29.38388 6.70358 12.32414 6.242351 -29.29728 -11.2257 -89.06911 -4.211303 22.82004 0 0 -9.373544 28.68254 12.37715 -24.50613
-1688.299 101.9487 2236.594 -12.77116 3.993163 -108.1777 4.675594 6.414927 -10.65687 -0 16.91696 -0 -23.04046 12.39303 6.951564 -0.1944598 -6.800536 -1.322698 -0 20.09701 -0 9.469597 -5.290532 17.67659 0.6725363 -3.68431 4.703305 -1.596505 19.18159 -4.938358 0.9625616 22.72417 3.15048 3.11265 -18.29481 3.291894 -7.786577 -28.05203 11.89172 98.24568 10.31706 -12.93862 -0 0 14.75731 -29.38429 6.703355 12.32363 6.242448 -29.29836 -11.22646 -89.06821 -4.212725 22.81779 0 0 -9.37477 28.68433 12.37653 -24.50851
-1695.108 101.9521 2235.078 -12.75297 4.05415 -108.4465 4.675168 6.410605 -10.6579 -0 16.9187 -0 -23.04201 12.39689 6.952171 -0.1954262 -6.795275 -1.322685 -0 20.09983 -0 9.470103 -5.291207 17.67572 0.6726128 -3.684495 4.702484 -1.596443 19.1822 -4.938844 0.9625747 22.72436 3.150498 3.112762 -18.2946 3.291842 -7.787084 -28.05119 11.89172 98.24772 10.31569 -12.94047 -0 0 14.75464 -29.3846 6.703158 12.32298 6.242579 -29.29972 -11.2273 -89.06723 -4.214405 22.8153 0 0 -9.376454 28.68644 12.37583 -24.51131
-1701.91 101.9558 2233.53 -12.73441 4.115081 -108.7154 4.674923 6.405965 -10.659 -0 16.91909 -0 -23.04372 12.40049 6.952792 -0.1962674 -6.789952 -1.322526 -0 20.10343 -0 9.47058 -5.291759 17.67472 0.6727887 -3.684687 4.701679 -1.596308 19.18285 -4.939411 0.9625666 22.7245 3.150487 3.112871 -18.29446 3.291739 -7.787654 -28.05036 11.89176 98.24985 10.31428 -12.94252 -0 0 14.75184 -29.38477 6.702998 12.32222 6.242737 -29.30127 -11.22816 -89.06621 -4.216235 22.81274 0 0 -9.378481 28.68874 12.37509 -24.51436
-1708.705 101.9598 2231.948 -12.71543 4.175943 -108.9843 4.674867 6.401296 -10.6601 -0 16.91814 -0 -23.04549 12.40363 6.953388 -0.1969377 -6.784888 -1.322234 -0 20.10756 -0 9.470999 -5.292159 17.67365 0.6730497 -3.684873 4.700937 -1.59611 19.1835 -4.940022 0.9625384 22.7246 3.150447 3.112968 -18.29441 3.291593 -7.788251 -28.04962 11.89182 98.25194 10.31292 -12.94465 -0 0 14.74909 -29.38482 6.702886 12.32142 6.242909 -29.30291 -11.229 -89.06524 -4.218099 22.81026 0 0 -9.380716 28.69109 12.37436 -24.51746
